# xmcd
#
# Track frame offsets:
#	150
#	14376
#	33522
#	50784
#	62321
#	90235
#	108663
#	120965
#	132950
#	151498
#	168164
#	181708
#	199831
#
# Disc length: 2837 seconds
#
# Revision: 0
# Processed by: cddbd v1.4PL0 Copyright (c) Steve Scherf et al.
# Submitted via: EasyCDDAExtractor 5.0.0.0
#
DISCID=9e0b130d
DTITLE=Claude Bolling - Original piano blues
DYEAR=2003
DGENRE=Blues
TTITLE0=baby seals blues
TTITLE1=frankie and johnny
TTITLE2=beale street blues
TTITLE3=the jelly roll blues
TTITLE4=medley
TTITLE5=blue serge
TTITLE6=dallas blues
TTITLE7=basin street blues
TTITLE8=royal garden blues
TTITLE9=the memphis blues
TTITLE10=jazz me blues
TTITLE11=the jogo blues
TTITLE12=aunt hagars blues
EXTD=
EXTT0=
EXTT1=
EXTT2=
EXTT3=
EXTT4=
EXTT5=
EXTT6=
EXTT7=
EXTT8=
EXTT9=
EXTT10=
EXTT11=
EXTT12=
PLAYORDER=
